<svg width="88" height="19" viewBox="0 0 88 19" fill="none" xmlns="http://www.w3.org/2000/svg">
<path d="M41.3119 10.8207C41.3342 10.5098 41.3718 10.163 41.3398 9.53557V4.58295H37.4957V13.8225H41.3398L46.9851 7.58872C46.9663 7.98352 46.9414 8.62288 46.9575 9.12876V13.8225H50.8006V4.58295H46.9575L41.3119 10.8207Z" fill="black"/>
<path d="M85.6717 4.54565H75.4709V6.28313H83.2693C83.8606 6.28313 84.341 6.5045 84.341 7.17023V7.68729H76.8753C75.6186 7.68729 74.8796 8.57439 74.8796 9.60938V11.8271C74.8796 12.751 75.5818 13.8227 76.8753 13.8227H88V6.43097C88 5.1003 86.9283 4.54565 85.6717 4.54565ZM84.341 11.9742H79.6476C78.7236 11.9742 78.5391 11.4196 78.5391 11.1238V10.3478C78.5391 9.86751 78.8345 9.42394 79.6108 9.42394H84.341V11.9742Z" fill="black"/>
<path d="M10.7924 4.54565H0.591406L0.554641 6.28313H8.38997C8.98139 6.28313 9.46168 6.5045 9.46168 7.17023V7.68729H1.9956C0.739258 7.68729 0 8.57439 0 9.60938V11.8271C0 12.751 0.702493 13.8227 1.9956 13.8227H13.1204V6.43097C13.1204 5.1003 12.0487 4.54565 10.7924 4.54565ZM9.46168 11.9742H4.73045C3.84334 11.9742 3.65873 11.4196 3.65873 11.1238V10.3478C3.65873 9.86751 3.95443 9.42394 4.73045 9.42394H9.4609V11.9742H9.46168Z" fill="black"/>
<path d="M69.4284 11.9747H64.8633V4.58295H61.0566V11.9747H56.5293V4.58295H52.6858V13.8233H73.253V4.58295H69.4284V11.9747Z" fill="black"/>
<path d="M33.4301 4.50907H27.2763V0H23.433V4.50907H17.2791C16.0595 4.50907 14.9319 5.10049 14.9319 6.43116V11.8641C14.9319 13.158 16.0588 13.8597 17.2791 13.8597H23.433V18.4055H27.2763V13.8597H33.4301C34.6497 13.8597 35.7582 13.1572 35.7582 11.8641V6.43116C35.7582 5.10049 34.6497 4.50907 33.4301 4.50907ZM23.433 12.0119H19.6815C19.0901 12.0119 18.6098 11.7162 18.6098 11.0137V7.24391C18.6098 6.54141 19.0901 6.24573 19.6815 6.24573H23.433V12.0119ZM32.0994 11.0137C32.0994 11.7162 31.6192 12.0119 31.0277 12.0119H27.2763V6.24573H31.0277C31.6192 6.24573 32.0994 6.54141 32.0994 7.24391V11.0137Z" fill="black"/>
</svg>
