<svg width="15" height="16" viewBox="0 0 15 16" fill="none" xmlns="http://www.w3.org/2000/svg">
<path d="M14.8671 15.1371L12.271 12.1961C13.7073 10.6045 14.4693 8.35556 14.0445 5.93359C13.5252 2.96495 11.1786 0.591419 8.27221 0.100106C3.60586 -0.681843 -0.399639 3.22791 0.0319308 7.96113C0.328635 11.2827 2.89107 14.0299 6.11436 14.4658C8.17781 14.7496 10.0929 14.1129 11.536 12.9089L14.1186 15.8291C14.3074 16.0436 14.6244 16.0574 14.8334 15.8637C15.0425 15.6768 15.056 15.3516 14.8671 15.1371ZM1.0097 7.26913C1.0097 3.83686 3.73398 1.04122 7.07865 1.04122C10.4233 1.04122 13.1476 3.83686 13.1476 7.26913C13.1476 10.7014 10.4233 13.4971 7.07865 13.4971C3.73398 13.4971 1.0097 10.7014 1.0097 7.26913Z" fill="#747474"/>
</svg>
