<svg width="12" height="12" viewBox="0 0 12 12" fill="none" xmlns="http://www.w3.org/2000/svg">
<g clip-path="url(#clip0_1_95)">
<path fill-rule="evenodd" clip-rule="evenodd" d="M10.5 4.8825V2.9175C10.5 2.76375 10.3725 2.63625 10.2188 2.63625H1.78125C1.6275 2.63625 1.5 2.76375 1.5 2.9175V4.88625C2.2275 4.88625 2.8275 5.205 2.8275 5.99625V6.01875C2.8275 6.825 2.22375 7.14 1.5 7.14V9.10875C1.5 9.2625 1.6275 9.39 1.78125 9.39H10.2188C10.3725 9.39 10.5 9.2625 10.5 9.10875V7.13625C9.78 7.13625 9.1725 6.825 9.1725 6.015V5.9925C9.1725 5.20125 9.7725 4.8825 10.5 4.8825ZM6 4.9686C5.74121 4.9686 5.5314 4.75878 5.5314 4.5C5.5314 4.24121 5.74121 4.0314 6 4.0314C6.25879 4.0314 6.4686 4.24121 6.4686 4.5C6.4686 4.75878 6.25879 4.9686 6 4.9686ZM5.53054 6C5.53054 6.25927 5.74073 6.46946 6 6.46946C6.25927 6.46946 6.46946 6.25927 6.46946 6C6.46946 5.74072 6.25927 5.53053 6 5.53053C5.74073 5.53053 5.53054 5.74072 5.53054 6ZM6 7.96931C5.7408 7.96931 5.53069 7.7592 5.53069 7.5C5.53069 7.2408 5.7408 7.03068 6 7.03068C6.2592 7.03068 6.46931 7.2408 6.46931 7.5C6.46931 7.7592 6.2592 7.96931 6 7.96931Z" fill="white"/>
</g>
<defs>
<clipPath id="clip0_1_95">
<rect width="12" height="12" fill="white"/>
</clipPath>
</defs>
</svg>
